# xmcd CD database file generated by Grip 3.3.1
# 
# Track frame offsets:
#       150
#       52022
#       94754
#       123144
#       160973
#       190334
#       233141
#       269724
# 
# Disc length: 3990 seconds
# 
# Revision: 1
# Processed by: cddbd v1.5.2PL0 Copyright (c) Steve Scherf et al.
# Submitted via: Grip 3.3.1
# 
DISCID=6d0f9408
DTITLE=Stefan Kirpal, Andreas Kirpal - Fr. Gernsheim: Works for violin a
DTITLE=nd piano - CD2
DYEAR=2011
DGENRE=Alternative
TTITLE0=I. Allegro moderato assai - Sonata No.4 G-Major Op.85
TTITLE1=II. Andantino dolente - in moto giocoso ma ben marcato - andantin
TTITLE1=o dolente - Sonata No.4 G-Major Op.85
TTITLE2=III. Allegro con brio - Sonata No.4 G-Major Op.85
TTITLE3=I. Allegro con brio - Sonate No.3 F-Major Op.64
TTITLE4=II. Allegro agitato - Sonate No.3 F-Major Op.64
TTITLE5=III. Andante molto espressivo - Sonate No.3 F-Major Op.64
TTITLE6=IV. Moderato e sempre cantabile - Sonate No.3 F-Major Op.64
TTITLE7=Andante (1853)
EXTD=
EXTT0=
EXTT1=
EXTT2=
EXTT3=
EXTT4=
EXTT5=
EXTT6=
EXTT7=
PLAYORDER=
